<svg width="21" height="20" viewBox="0 0 21 20" fill="none" xmlns="http://www.w3.org/2000/svg">
<g clip-path="url(#clip0_1_459)">
<path d="M14.1 17.5V15.8333C14.1 14.9493 13.7488 14.1014 13.1237 13.4763C12.4986 12.8512 11.6507 12.5 10.7667 12.5H5.76666C4.88261 12.5 4.03476 12.8512 3.40964 13.4763C2.78452 14.1014 2.43333 14.9493 2.43333 15.8333V17.5" stroke="#6C4A09" stroke-width="2" stroke-linecap="round" stroke-linejoin="round"/>
<path d="M14.1 2.60666C14.8148 2.79197 15.4478 3.20938 15.8997 3.79338C16.3516 4.37738 16.5968 5.0949 16.5968 5.83333C16.5968 6.57175 16.3516 7.28927 15.8997 7.87327C15.4478 8.45727 14.8148 8.87468 14.1 9.05999" stroke="#6C4A09" stroke-width="2" stroke-linecap="round" stroke-linejoin="round"/>
<path d="M19.1 17.5V15.8333C19.0994 15.0948 18.8536 14.3773 18.4011 13.7936C17.9486 13.2099 17.3151 12.793 16.6 12.6083" stroke="#6C4A09" stroke-width="2" stroke-linecap="round" stroke-linejoin="round"/>
<path d="M8.26666 9.16667C10.1076 9.16667 11.6 7.67428 11.6 5.83333C11.6 3.99238 10.1076 2.5 8.26666 2.5C6.42571 2.5 4.93333 3.99238 4.93333 5.83333C4.93333 7.67428 6.42571 9.16667 8.26666 9.16667Z" stroke="#6C4A09" stroke-width="2" stroke-linecap="round" stroke-linejoin="round"/>
</g>
<defs>
<clipPath id="clip0_1_459">
<rect width="20" height="20" fill="white" transform="translate(0.766663)"/>
</clipPath>
</defs>
</svg>
