<svg width="22" height="24" viewBox="0 0 22 24" fill="none" xmlns="http://www.w3.org/2000/svg">
<path d="M10.6016 7V21" stroke="#D9822B" stroke-width="2" stroke-linecap="round" stroke-linejoin="round"/>
<path d="M2.65043 18C2.41612 18 2.19141 17.8946 2.02573 17.7071C1.86005 17.5196 1.76697 17.2652 1.76697 17V4C1.76697 3.73478 1.86005 3.48043 2.02573 3.29289C2.19141 3.10536 2.41612 3 2.65043 3H7.06775C8.00499 3 8.90384 3.42143 9.56656 4.17157C10.2293 4.92172 10.6016 5.93913 10.6016 7C10.6016 5.93913 10.9739 4.92172 11.6366 4.17157C12.2994 3.42143 13.1982 3 14.1355 3H18.5528C18.7871 3 19.0118 3.10536 19.1775 3.29289C19.3432 3.48043 19.4362 3.73478 19.4362 4V17C19.4362 17.2652 19.3432 17.5196 19.1775 17.7071C19.0118 17.8946 18.7871 18 18.5528 18H13.252C12.5491 18 11.8749 18.3161 11.3779 18.8787C10.8808 19.4413 10.6016 20.2044 10.6016 21C10.6016 20.2044 10.3224 19.4413 9.82532 18.8787C9.32828 18.3161 8.65414 18 7.95121 18H2.65043Z" stroke="#D9822B" stroke-width="2" stroke-linecap="round" stroke-linejoin="round"/>
</svg>
