<svg width="21" height="20" viewBox="0 0 21 20" fill="none" xmlns="http://www.w3.org/2000/svg">
<g clip-path="url(#clip0_153_141)">
<path d="M10.25 5.83325V17.4999" stroke="white" stroke-width="2" stroke-linecap="round" stroke-linejoin="round"/>
<path d="M2.74996 15C2.52895 15 2.31698 14.9122 2.1607 14.7559C2.00442 14.5996 1.91663 14.3877 1.91663 14.1667V3.33333C1.91663 3.11232 2.00442 2.90036 2.1607 2.74408C2.31698 2.5878 2.52895 2.5 2.74996 2.5H6.91663C7.80068 2.5 8.64853 2.85119 9.27365 3.47631C9.89877 4.10143 10.25 4.94928 10.25 5.83333C10.25 4.94928 10.6011 4.10143 11.2263 3.47631C11.8514 2.85119 12.6992 2.5 13.5833 2.5H17.75C17.971 2.5 18.1829 2.5878 18.3392 2.74408C18.4955 2.90036 18.5833 3.11232 18.5833 3.33333V14.1667C18.5833 14.3877 18.4955 14.5996 18.3392 14.7559C18.1829 14.9122 17.971 15 17.75 15H12.75C12.0869 15 11.451 15.2634 10.9822 15.7322C10.5134 16.2011 10.25 16.837 10.25 17.5C10.25 16.837 9.98657 16.2011 9.51773 15.7322C9.04889 15.2634 8.413 15 7.74996 15H2.74996Z" stroke="white" stroke-width="2" stroke-linecap="round" stroke-linejoin="round"/>
</g>
<defs>
<clipPath id="clip0_153_141">
<rect width="20" height="20" fill="white" transform="translate(0.25)"/>
</clipPath>
</defs>
</svg>
